M48
; DRILL file {KiCad 9.0.6} date 2025-11-19T17:39:38+0530
; FORMAT={-:-/ absolute / metric / decimal}
; #@! TF.CreationDate,2025-11-19T17:39:38+05:30
; #@! TF.GenerationSoftware,Kicad,Pcbnew,9.0.6
; #@! TF.FileFunction,Plated,1,2,PTH
FMAT,2
METRIC
; #@! TA.AperFunction,Plated,PTH,ComponentDrill
T1C0.800
; #@! TA.AperFunction,Plated,PTH,ComponentDrill
T2C1.000
; #@! TA.AperFunction,Plated,PTH,ComponentDrill
T3C1.150
%
G90
G05
T1
X133.09Y-94.5
X140.88Y-103.0
X140.88Y-105.54
X140.88Y-108.08
X140.88Y-110.62
X143.25Y-94.5
X145.5Y-88.5
X145.84Y-82.5
X146.34Y-94.0
X148.5Y-103.0
X148.5Y-105.54
X148.5Y-108.08
X148.5Y-110.62
X150.5Y-88.5
X155.84Y-88.0
X156.0Y-82.5
X156.5Y-94.0
X161.0Y-82.0
X163.0Y-94.25
X163.0Y-99.25
X163.5Y-105.5
X163.5Y-115.66
X166.0Y-82.0
X166.0Y-88.0
X167.88Y-93.0
X167.88Y-95.54
X167.88Y-98.08
X167.88Y-100.62
X173.96Y-108.96
X173.96Y-114.04
X175.5Y-93.0
X175.5Y-95.54
X175.5Y-98.08
X175.5Y-100.62
X176.5Y-111.5
T2
X170.96Y-84.25
X173.5Y-84.25
T3
X136.9Y-85.5
X141.5Y-85.5
M30
