%TF.GenerationSoftware,KiCad,Pcbnew,9.0.6*%
%TF.CreationDate,2025-11-19T17:39:34+05:30*%
%TF.ProjectId,ctd_project,6374645f-7072-46f6-9a65-63742e6b6963,rev?*%
%TF.SameCoordinates,Original*%
%TF.FileFunction,Copper,L2,Bot*%
%TF.FilePolarity,Positive*%
%FSLAX46Y46*%
G04 Gerber Fmt 4.6, Leading zero omitted, Abs format (unit mm)*
G04 Created by KiCad (PCBNEW 9.0.6) date 2025-11-19 17:39:34*
%MOMM*%
%LPD*%
G01*
G04 APERTURE LIST*
G04 Aperture macros list*
%AMRoundRect*
0 Rectangle with rounded corners*
0 $1 Rounding radius*
0 $2 $3 $4 $5 $6 $7 $8 $9 X,Y pos of 4 corners*
0 Add a 4 corners polygon primitive as box body*
4,1,4,$2,$3,$4,$5,$6,$7,$8,$9,$2,$3,0*
0 Add four circle primitives for the rounded corners*
1,1,$1+$1,$2,$3*
1,1,$1+$1,$4,$5*
1,1,$1+$1,$6,$7*
1,1,$1+$1,$8,$9*
0 Add four rect primitives between the rounded corners*
20,1,$1+$1,$2,$3,$4,$5,0*
20,1,$1+$1,$4,$5,$6,$7,0*
20,1,$1+$1,$6,$7,$8,$9,0*
20,1,$1+$1,$8,$9,$2,$3,0*%
G04 Aperture macros list end*
%TA.AperFunction,ComponentPad*%
%ADD10R,1.700000X1.700000*%
%TD*%
%TA.AperFunction,ComponentPad*%
%ADD11C,1.700000*%
%TD*%
%TA.AperFunction,ComponentPad*%
%ADD12RoundRect,0.250000X0.825000X0.825000X-0.825000X0.825000X-0.825000X-0.825000X0.825000X-0.825000X0*%
%TD*%
%TA.AperFunction,ComponentPad*%
%ADD13C,2.150000*%
%TD*%
%TA.AperFunction,ComponentPad*%
%ADD14C,1.600000*%
%TD*%
%TA.AperFunction,ComponentPad*%
%ADD15C,1.440000*%
%TD*%
%TA.AperFunction,ComponentPad*%
%ADD16RoundRect,0.250000X0.550000X0.550000X-0.550000X0.550000X-0.550000X-0.550000X0.550000X-0.550000X0*%
%TD*%
%TA.AperFunction,ComponentPad*%
%ADD17RoundRect,0.250000X-0.550000X-0.550000X0.550000X-0.550000X0.550000X0.550000X-0.550000X0.550000X0*%
%TD*%
%TA.AperFunction,Conductor*%
%ADD18C,0.300000*%
%TD*%
G04 APERTURE END LIST*
D10*
%TO.P,J1,1,Pin_1*%
%TO.N,/vout*%
X170960000Y-84250000D03*
D11*
%TO.P,J1,2,Pin_2*%
%TO.N,GND*%
X173500000Y-84250000D03*
%TD*%
D12*
%TO.P,J3,1,Pin_1*%
%TO.N,/vin*%
X141500000Y-85500000D03*
D13*
%TO.P,J3,2,Pin_2*%
%TO.N,GND*%
X136900000Y-85500000D03*
%TD*%
D14*
%TO.P,C2,1*%
%TO.N,Net-(U2-+)*%
X163000000Y-94250000D03*
%TO.P,C2,2*%
%TO.N,GND*%
X163000000Y-99250000D03*
%TD*%
D15*
%TO.P,RV1,1,1*%
%TO.N,/vout*%
X173960000Y-114040000D03*
%TO.P,RV1,2,2*%
%TO.N,Net-(U2--)*%
X176500000Y-111500000D03*
%TO.P,RV1,3,3*%
X173960000Y-108960000D03*
%TD*%
D16*
%TO.P,U2,1,NULL*%
%TO.N,unconnected-(U2-NULL-Pad1)*%
X175500000Y-100620000D03*
D14*
%TO.P,U2,2,-*%
%TO.N,Net-(U2--)*%
X175500000Y-98080000D03*
%TO.P,U2,3,+*%
%TO.N,Net-(U2-+)*%
X175500000Y-95540000D03*
%TO.P,U2,4,V-*%
%TO.N,VEE*%
X175500000Y-93000000D03*
%TO.P,U2,5,NULL*%
%TO.N,unconnected-(U2-NULL-Pad5)*%
X167880000Y-93000000D03*
%TO.P,U2,6*%
%TO.N,/vout*%
X167880000Y-95540000D03*
%TO.P,U2,7,V+*%
%TO.N,VCC*%
X167880000Y-98080000D03*
%TO.P,U2,8,NC*%
%TO.N,unconnected-(U2-NC-Pad8)*%
X167880000Y-100620000D03*
%TD*%
%TO.P,R2,1*%
%TO.N,Net-(U2-+)*%
X166000000Y-88000000D03*
%TO.P,R2,2*%
%TO.N,Net-(C1-Pad1)*%
X155840000Y-88000000D03*
%TD*%
%TO.P,R4,1*%
%TO.N,Net-(U2--)*%
X163500000Y-105500000D03*
%TO.P,R4,2*%
%TO.N,GND*%
X163500000Y-115660000D03*
%TD*%
%TO.P,C1,1*%
%TO.N,Net-(C1-Pad1)*%
X161000000Y-82000000D03*
%TO.P,C1,2*%
%TO.N,/vout*%
X166000000Y-82000000D03*
%TD*%
D17*
%TO.P,U1,1,NULL*%
%TO.N,unconnected-(U1-NULL-Pad1)*%
X140880000Y-103000000D03*
D14*
%TO.P,U1,2,-*%
%TO.N,Net-(U1--)*%
X140880000Y-105540000D03*
%TO.P,U1,3,+*%
%TO.N,GND*%
X140880000Y-108080000D03*
%TO.P,U1,4,V-*%
%TO.N,VEE*%
X140880000Y-110620000D03*
%TO.P,U1,5,NULL*%
%TO.N,unconnected-(U1-NULL-Pad5)*%
X148500000Y-110620000D03*
%TO.P,U1,6*%
%TO.N,Net-(C3-Pad2)*%
X148500000Y-108080000D03*
%TO.P,U1,7,V+*%
%TO.N,VCC*%
X148500000Y-105540000D03*
%TO.P,U1,8,NC*%
%TO.N,unconnected-(U1-NC-Pad8)*%
X148500000Y-103000000D03*
%TD*%
%TO.P,R5,1*%
%TO.N,/vin*%
X133090000Y-94500000D03*
%TO.P,R5,2*%
%TO.N,Net-(U1--)*%
X143250000Y-94500000D03*
%TD*%
%TO.P,R6,1*%
%TO.N,Net-(U1--)*%
X145840000Y-82500000D03*
%TO.P,R6,2*%
%TO.N,Net-(C3-Pad2)*%
X156000000Y-82500000D03*
%TD*%
%TO.P,R1,1*%
%TO.N,Net-(C1-Pad1)*%
X156500000Y-94000000D03*
%TO.P,R1,2*%
%TO.N,Net-(C3-Pad2)*%
X146340000Y-94000000D03*
%TD*%
%TO.P,C3,1*%
%TO.N,Net-(U1--)*%
X145500000Y-88500000D03*
%TO.P,C3,2*%
%TO.N,Net-(C3-Pad2)*%
X150500000Y-88500000D03*
%TD*%
D18*
%TO.N,/vout*%
X174901000Y-88519000D02*
X167880000Y-95540000D01*
X170960000Y-84250000D02*
X172361000Y-82849000D01*
X168552000Y-103448000D02*
X162650033Y-103448000D01*
X162650033Y-103448000D02*
X161448000Y-104650033D01*
X169231000Y-96891000D02*
X169231000Y-102769000D01*
X161448000Y-106349967D02*
X169138033Y-114040000D01*
X174901000Y-83669686D02*
X174901000Y-88519000D01*
X167880000Y-95540000D02*
X169231000Y-96891000D01*
X169138033Y-114040000D02*
X173960000Y-114040000D01*
X161448000Y-104650033D02*
X161448000Y-106349967D01*
X174080314Y-82849000D02*
X174901000Y-83669686D01*
X169231000Y-102769000D02*
X168552000Y-103448000D01*
X172361000Y-82849000D02*
X174080314Y-82849000D01*
X168250000Y-84250000D02*
X166000000Y-82000000D01*
X170960000Y-84250000D02*
X168250000Y-84250000D01*
%TO.N,Net-(C1-Pad1)*%
X155840000Y-88000000D02*
X155840000Y-93340000D01*
X155840000Y-88000000D02*
X155840000Y-87160000D01*
X155840000Y-93340000D02*
X156500000Y-94000000D01*
X155840000Y-87160000D02*
X161000000Y-82000000D01*
%TO.N,GND*%
X131739000Y-98939000D02*
X140880000Y-108080000D01*
X144989000Y-93002364D02*
X149149000Y-88842364D01*
X160046000Y-102204000D02*
X163000000Y-99250000D01*
X164351000Y-97899000D02*
X163000000Y-99250000D01*
X162351000Y-92988397D02*
X161649000Y-93690397D01*
X161649000Y-93690397D02*
X161649000Y-97899000D01*
X140880000Y-108080000D02*
X144989000Y-103971000D01*
X131739000Y-90661000D02*
X131739000Y-98939000D01*
X160046000Y-112206000D02*
X160046000Y-102204000D01*
X164351000Y-94601081D02*
X164351000Y-97899000D01*
X163500000Y-115660000D02*
X160046000Y-112206000D01*
X149149000Y-88842364D02*
X149149000Y-87440397D01*
X161649000Y-97899000D02*
X163000000Y-99250000D01*
X144989000Y-103971000D02*
X144989000Y-93002364D01*
X136900000Y-85500000D02*
X131739000Y-90661000D01*
X149149000Y-87440397D02*
X155940397Y-80649000D01*
X162351000Y-81440397D02*
X162351000Y-92988397D01*
X173500000Y-85452081D02*
X164351000Y-94601081D01*
X173500000Y-84250000D02*
X173500000Y-85452081D01*
X155940397Y-80649000D02*
X161559603Y-80649000D01*
X161559603Y-80649000D02*
X162351000Y-81440397D01*
%TO.N,Net-(U2-+)*%
X176851000Y-84628322D02*
X172871678Y-80649000D01*
X164649000Y-86649000D02*
X166000000Y-88000000D01*
X166000000Y-88000000D02*
X166000000Y-91250000D01*
X176851000Y-94189000D02*
X176851000Y-84628322D01*
X172871678Y-80649000D02*
X165440397Y-80649000D01*
X166000000Y-91250000D02*
X163000000Y-94250000D01*
X175500000Y-95540000D02*
X176851000Y-94189000D01*
X164649000Y-81440397D02*
X164649000Y-86649000D01*
X165440397Y-80649000D02*
X164649000Y-81440397D01*
%TO.N,Net-(U1--)*%
X143250000Y-90750000D02*
X145500000Y-88500000D01*
X143250000Y-94500000D02*
X143250000Y-90750000D01*
X145840000Y-88160000D02*
X145500000Y-88500000D01*
X143250000Y-94500000D02*
X139500000Y-98250000D01*
X145840000Y-82500000D02*
X145840000Y-88160000D01*
X139500000Y-98250000D02*
X139500000Y-104160000D01*
X139500000Y-104160000D02*
X140880000Y-105540000D01*
%TO.N,Net-(C3-Pad2)*%
X146340000Y-105920000D02*
X148500000Y-108080000D01*
X156000000Y-82500000D02*
X150500000Y-88000000D01*
X146340000Y-94000000D02*
X146340000Y-105920000D01*
X150500000Y-88500000D02*
X150500000Y-89840000D01*
X150500000Y-89840000D02*
X146340000Y-94000000D01*
X150500000Y-88000000D02*
X150500000Y-88500000D01*
%TO.N,VEE*%
X162149000Y-106059603D02*
X162149000Y-104940397D01*
X162940397Y-104149000D02*
X168842364Y-104149000D01*
X169932000Y-98568000D02*
X175500000Y-93000000D01*
X169932000Y-103059364D02*
X169932000Y-98568000D01*
X148211000Y-117951000D02*
X171846466Y-117951000D01*
X175231000Y-114566466D02*
X175231000Y-113513534D01*
X140880000Y-110620000D02*
X148211000Y-117951000D01*
X171846466Y-117951000D02*
X175231000Y-114566466D01*
X168842364Y-104149000D02*
X169932000Y-103059364D01*
X167080761Y-110991364D02*
X162149000Y-106059603D01*
X172708830Y-110991364D02*
X167080761Y-110991364D01*
X162149000Y-104940397D02*
X162940397Y-104149000D01*
X175231000Y-113513534D02*
X172708830Y-110991364D01*
%TO.N,VCC*%
X160747000Y-106747000D02*
X160747000Y-104359669D01*
X166500000Y-99460000D02*
X167880000Y-98080000D01*
X162359669Y-102747000D02*
X166500000Y-102747000D01*
X165500000Y-111500000D02*
X160747000Y-106747000D01*
X160210000Y-117250000D02*
X164250000Y-117250000D01*
X165500000Y-116000000D02*
X165500000Y-111500000D01*
X148500000Y-105540000D02*
X160210000Y-117250000D01*
X164250000Y-117250000D02*
X165500000Y-116000000D01*
X160747000Y-104359669D02*
X162359669Y-102747000D01*
X166500000Y-102747000D02*
X166500000Y-99460000D01*
%TO.N,/vin*%
X141500000Y-86090000D02*
X133090000Y-94500000D01*
X141500000Y-85500000D02*
X141500000Y-86090000D01*
%TO.N,Net-(U2--)*%
X173960000Y-108960000D02*
X173960000Y-99620000D01*
X176500000Y-111500000D02*
X173960000Y-108960000D01*
X173960000Y-99620000D02*
X175500000Y-98080000D01*
X173960000Y-108960000D02*
X166960000Y-108960000D01*
X166960000Y-108960000D02*
X163500000Y-105500000D01*
%TD*%
M02*
